<svg width="634" height="634" viewBox="0 0 634 634" fill="none" xmlns="http://www.w3.org/2000/svg">
<path d="M376.157 465.257L318.91 408.487C292.6 382.397 279.443 369.35 264.297 364.457C250.973 360.15 236.633 360.15 223.307 364.457C208.162 369.35 195.006 382.397 168.694 408.487L35.3977 542.74M376.157 465.257L387.533 453.97C414.4 427.33 427.83 414.01 443.243 409.15C456.797 404.873 471.36 405.04 484.813 409.627C500.107 414.843 513.23 428.467 539.473 455.717L567.333 484.003M376.157 465.257L508 599.427M35.3977 542.74C36.4213 551.42 38.1943 558.237 41.2663 564.267C47.6577 576.81 57.8567 587.01 70.4007 593.4C84.6613 600.667 103.33 600.667 140.667 600.667H460.667C481.377 600.667 496.343 600.667 508 599.427M35.3977 542.74C34 530.887 34 515.553 34 494V174C34 136.663 34 117.995 41.2663 103.734C47.6577 91.1897 57.8567 80.991 70.4007 74.5997C84.6613 67.3333 103.33 67.3333 140.667 67.3333H267.333M508 599.427C517.357 598.43 524.583 596.637 530.933 593.4C543.477 587.01 553.677 576.81 560.067 564.267C567.333 550.007 567.333 531.337 567.333 494V367.333M500.667 234V134M500.667 134V34M500.667 134H600.667M500.667 134H400.667" stroke="black" stroke-width="66.6667" stroke-linecap="round" stroke-linejoin="round"/>
</svg>
