<svg width="634" height="601" viewBox="0 0 634 601" fill="none" xmlns="http://www.w3.org/2000/svg">
<path d="M376.13 431.936L320.527 376.8C293.697 350.19 280.28 336.886 264.887 332.023C251.347 327.746 236.793 327.903 223.349 332.473C208.063 337.67 194.938 351.26 168.689 378.44L35.4697 510.023M376.13 431.936L387.51 420.653C414.373 394.013 427.803 380.693 443.217 375.83C456.77 371.556 471.333 371.723 484.787 376.31C500.08 381.523 513.203 395.15 539.447 422.4L567.333 450.47M376.13 431.936L509.833 565.903M35.4697 510.023C34 498.09 34 482.603 34 460.686V140.687C34 103.35 34 84.6813 41.2663 70.4207C47.6577 57.8763 57.8563 47.6777 70.4007 41.286C84.6613 34.02 103.33 34.02 140.667 34.02L267.333 34M35.4697 510.023C36.504 518.423 38.2653 525.063 41.2663 530.953C47.6577 543.496 57.8563 553.696 70.4007 560.086C84.6613 567.353 103.33 567.353 140.667 567.353H460.667C498.003 567.353 516.673 567.353 530.933 560.086C543.477 553.696 553.677 543.496 560.067 530.953C567.333 516.693 567.333 498.023 567.333 460.686V450.47M567.333 450.47V234M600.64 100.687H400.64" stroke="black" stroke-width="66.6667" stroke-linecap="round" stroke-linejoin="round"/>
</svg>
