<svg width="667" height="667" viewBox="0 0 667 667" fill="none" xmlns="http://www.w3.org/2000/svg">
<path d="M434.917 0C452.074 0 466.215 12.915 468.147 29.5536L468.372 33.4552V100.365C468.372 118.842 453.394 133.821 434.917 133.821C417.76 133.821 403.619 120.906 401.687 104.267L401.462 100.365H267.641V535.282L273.467 535.311C279.161 559.403 288.863 581.947 301.831 602.2L167.276 602.193C148.799 602.193 133.821 587.214 133.821 568.738C133.821 551.581 146.736 537.44 163.374 535.508L167.276 535.282H200.731V100.365H66.9103C66.9103 117.522 53.9953 131.663 37.3567 133.596L33.4552 133.821C16.2982 133.821 2.15762 120.906 0.225076 104.267L0 100.365V33.4552C0 14.9784 14.9784 0 33.4552 0C50.6122 0 64.7527 12.915 66.6852 29.5536L66.9103 33.4552H401.462C401.462 14.9784 416.44 0 434.917 0Z" fill="black"/>
<path fill-rule="evenodd" clip-rule="evenodd" d="M588.887 503.044H373.557C367.25 503.044 354.625 501.523 354.625 484.187C354.625 466.851 367.25 464.722 373.557 464.722H588.887C595.194 464.722 608.275 466.851 608.275 484.187C608.275 501.523 595.194 503.044 588.887 503.044ZM484.187 301.705C383.4 301.705 301.705 383.366 301.705 484.187C301.705 585.009 383.4 666.67 484.187 666.67C584.975 666.67 666.67 585.009 666.67 484.187C666.67 383.366 584.975 301.705 484.187 301.705Z" fill="black"/>
</svg>
