<svg width="667" height="667" viewBox="0 0 667 667" fill="none" xmlns="http://www.w3.org/2000/svg">
<path d="M483.333 300C584.586 300 666.667 382.081 666.667 483.333C666.667 584.586 584.586 666.667 483.333 666.667C382.081 666.667 300 584.586 300 483.333C300 382.081 382.081 300 483.333 300ZM483.333 366.641L480.337 366.91C473.534 368.144 468.17 373.509 466.935 380.312L466.667 383.308L466.655 466.641L383.255 466.667L380.259 466.935C373.456 468.17 368.092 473.534 366.857 480.337L366.588 483.333L366.857 486.329C368.092 493.132 373.456 498.497 380.259 499.731L383.255 500L466.688 499.974L466.704 583.449L466.972 586.445C468.207 593.248 473.571 598.613 480.374 599.848L483.37 600.116L486.366 599.848C493.169 598.613 498.534 593.248 499.768 586.445L500.037 583.449L500.022 499.974L583.486 500L586.481 499.731C593.284 498.497 598.649 493.132 599.884 486.329L600.152 483.333L599.884 480.337C598.649 473.534 593.284 468.17 586.481 466.935L583.486 466.667L499.988 466.641L500 383.308L499.731 380.312C498.32 372.537 491.515 366.641 483.333 366.641ZM433.333 0C450.428 0 464.517 12.868 466.442 29.446L466.667 33.3333V100C466.667 118.409 451.743 133.333 433.333 133.333C416.239 133.333 402.15 120.465 400.224 103.887L400 100H266.667V533.333L272.471 533.361C278.145 557.366 287.812 579.828 300.732 600.007L166.667 600C148.257 600 133.333 585.076 133.333 566.667C133.333 549.572 146.201 535.483 162.779 533.558L166.667 533.333H200V100H66.6667C66.6667 117.095 53.7987 131.184 37.2207 133.109L33.3333 133.333C16.2388 133.333 2.14976 120.465 0.224257 103.887L0 100V33.3333C0 14.9238 14.9238 0 33.3333 0C50.4279 0 64.5169 12.868 66.4424 29.446L66.6667 33.3333H400C400 14.9238 414.924 0 433.333 0Z" fill="black"/>
</svg>
